HIERARCHY
ROOT reference
{
	OFFSET -1.755781 0.000000 -90.502098
	CHANNELS 6 Xposition Yposition Zposition Xrotation Yrotation Zrotation
	JOINT root
	{
		OFFSET 7.242900 89.671997 1.880760
		CHANNELS 3 Xrotation Yrotation Zrotation
		JOINT Hips
		{
			OFFSET 0.000000 0.000000 0.000000
			CHANNELS 3 Xrotation Yrotation Zrotation
			JOINT Spine
			{
				OFFSET -0.009742 -0.106522 0.018715
				CHANNELS 3 Xrotation Yrotation Zrotation
				JOINT Spine1
				{
					OFFSET 3.794800 17.380302 -5.293510
					CHANNELS 3 Xrotation Yrotation Zrotation
					JOINT Spine2
					{
						OFFSET 5.830028 16.765602 -5.431587
						CHANNELS 3 Xrotation Yrotation Zrotation
						JOINT Neck
						{
							OFFSET 8.299330 14.557297 -7.982063
							CHANNELS 3 Xrotation Yrotation Zrotation
							JOINT Head
							{
								OFFSET 6.684959 7.854721 -5.158058
								CHANNELS 3 Xrotation Yrotation Zrotation
								End Site
								{
									OFFSET 0.000000 0.100006 0.000000
								}
							}
						}
						JOINT RightShoulder
						{
							OFFSET 11.354399 13.823593 -6.139458
							CHANNELS 3 Xrotation Yrotation Zrotation
							JOINT RightArm
							{
								OFFSET 13.406200 -5.663712 6.841248
								CHANNELS 3 Xrotation Yrotation Zrotation
								JOINT RightForeArm
								{
									OFFSET 26.691799 -12.235397 -1.583374
									CHANNELS 3 Xrotation Yrotation Zrotation
									JOINT RightHand
									{
										OFFSET 20.854904 -2.251762 -13.468597
										CHANNELS 3 Xrotation Yrotation Zrotation
										End Site
										{
											OFFSET 0.000000 0.099998 0.000000
										}
									}
								}
							}
						}
						JOINT LeftShoulder
						{
							OFFSET 5.252689 15.277695 -9.834099
							CHANNELS 3 Xrotation Yrotation Zrotation
							JOINT LeftArm
							{
								OFFSET -13.986003 2.976974 -7.357773
								CHANNELS 3 Xrotation Yrotation Zrotation
								JOINT LeftForeArm
								{
									OFFSET -24.673000 -14.025902 7.692787
									CHANNELS 3 Xrotation Yrotation Zrotation
									JOINT LeftHand
									{
										OFFSET 8.040867 -21.465797 -9.796074
										CHANNELS 3 Xrotation Yrotation Zrotation
										End Site
										{
											OFFSET 0.000000 0.099998 0.000000
										}
									}
								}
							}
						}
					}
				}
			}
			JOINT RightUpLeg
			{
				OFFSET 8.229601 0.340744 4.849403
				CHANNELS 3 Xrotation Yrotation Zrotation
				JOINT RightLeg
				{
					OFFSET 9.724193 -43.389702 7.069298
					CHANNELS 3 Xrotation Yrotation Zrotation
					JOINT RightFoot
					{
						OFFSET -6.482473 -36.336201 18.254601
						CHANNELS 3 Xrotation Yrotation Zrotation
						JOINT RightToe
						{
							OFFSET 12.135294 -7.739180 -10.815697
							CHANNELS 3 Xrotation Yrotation Zrotation
							End Site
							{
								OFFSET 0.000000 0.100000 0.000000
							}
						}
					}
				}
			}
			JOINT LeftUpLeg
			{
				OFFSET -8.229591 -0.340767 -4.849403
				CHANNELS 3 Xrotation Yrotation Zrotation
				JOINT LeftLeg
				{
					OFFSET 3.061944 -38.934101 -22.404396
					CHANNELS 3 Xrotation Yrotation Zrotation
					JOINT LeftFoot
					{
						OFFSET -1.541950 -41.018398 3.268173
						CHANNELS 3 Xrotation Yrotation Zrotation
						JOINT LeftToe
						{
							OFFSET -0.107095 -7.717820 -16.265396
							CHANNELS 3 Xrotation Yrotation Zrotation
							End Site
							{
								OFFSET 0.000000 0.100000 0.000000
							}
						}
					}
				}
			}
		}
	}
}
MOTION
Frames: 5
Frame Time: 0.041667
0.643339 -0.000001 -50.227119 -0.000000 0.000000 -0.000001 1.417029 13.188242 1.214031 -0.299269 0.137931 0.497449 0.045515 -3.155267 -0.478873 -0.544895 -4.288740 -0.348898 -0.776363 -2.846891 -0.004960 0.064941 -0.292133 0.009681 0.107854 -0.499922 0.073619 0.762956 0.966592 -1.002492 -0.481454 -2.981222 3.395660 0.049612 0.100619 0.060066 0.095393 -0.238728 -0.070766 0.178749 0.729968 0.024744 -1.619740 0.161938 1.301945 -0.390767 0.236161 -0.832630 0.106243 -0.405253 -0.058562 34.558114 -6.054109 3.411242 2.137964 0.948492 2.542294 -22.648105 -2.959707 -19.538943 -3.850055 -0.362398 2.171436 -27.813982 0.977004 -2.691363 -12.177787 0.512625 -2.115863 25.690689 1.318070 -1.146619 14.077278 0.648334 2.403474 
0.355088 -0.000000 -52.369392 -0.000000 0.000000 -0.000001 1.341668 12.836535 1.094228 -0.444605 0.203799 0.738565 0.095119 -3.123898 -0.520046 -0.452638 -4.177543 -0.434084 -0.704160 -2.785874 -0.069618 -0.105724 -0.212066 -0.044954 -0.150442 -0.399433 -0.160828 0.718583 0.959856 -0.906674 -0.119214 -2.822534 2.918435 0.045342 0.091962 0.054887 0.044451 -0.272741 0.003630 0.188568 0.810931 0.045682 -1.801847 -0.014843 1.594436 -0.505282 0.306840 -1.077760 0.178748 -0.565490 -0.083670 33.805318 -5.485988 3.093193 0.802658 0.342829 0.952748 -20.887077 -3.138703 -16.574120 -3.919344 -0.370260 2.210349 -27.990353 1.150510 -3.673140 -13.353448 0.585740 -2.313576 22.488673 1.302184 1.699812 18.524924 0.412061 0.161541 
-0.234967 -0.000000 -56.450211 -0.000000 0.000000 -0.000001 1.197132 11.895770 0.800746 -0.679158 0.308505 1.127092 0.221046 -3.015779 -0.519541 -0.224722 -3.912504 -0.487629 -0.526234 -2.632836 -0.122381 -0.270496 -0.090072 0.004127 -0.488685 -0.220076 -0.223134 0.576570 0.868753 -0.653756 -0.315767 -2.169678 1.754465 0.010979 0.022274 0.013309 0.126235 -0.347202 -0.042555 0.248699 0.901060 -0.018285 -2.245880 -0.365318 1.349635 -0.294790 0.177423 -0.627600 0.240750 -0.671802 -0.018329 32.136061 -4.607021 2.395838 -1.333411 -0.535021 -1.578618 -16.969557 -3.623736 -12.568094 -4.137737 -0.395383 2.332955 -27.870484 0.432675 -5.585601 -15.978533 0.763554 -2.749460 12.762418 0.045346 8.640505 29.727135 -1.104232 -6.035346 
-0.311916 -0.000000 -58.626091 -0.000000 0.000000 -0.000001 1.041823 11.697048 0.613027 -0.786305 0.355692 1.304333 0.311145 -3.010542 -0.511039 -0.081889 -3.848231 -0.499254 -0.424101 -2.604099 -0.135215 -0.210588 -0.116429 0.050241 -0.421364 -0.254264 -0.095568 0.535381 0.805538 -0.608290 -0.638975 -2.015115 1.427014 0.005779 0.011712 0.006989 0.173195 -0.347326 -0.069874 0.271909 0.870640 -0.073759 -2.257112 -0.401302 1.140440 -0.159503 0.095462 -0.339188 0.287697 -0.636445 -0.017364 31.132296 -4.743837 1.856543 -1.687901 -0.670112 -1.997483 -15.537449 -3.619319 -10.942343 -4.284947 -0.412591 2.415578 -27.109559 -0.528220 -6.486849 -18.307511 0.937977 -3.129194 5.823121 -1.672641 13.081410 35.010979 -2.392467 -10.236033 
-0.838540 -0.000000 -62.614799 -0.000000 0.000000 -0.000001 0.530740 11.462977 0.555633 -0.681165 0.309388 1.130402 0.388443 -2.793523 -0.474584 0.063447 -3.587959 -0.462468 -0.301797 -2.441296 -0.125223 -0.148782 -0.245444 0.015250 -0.263774 -0.477625 -0.087340 0.555139 0.708583 -0.726172 -0.820829 -2.277550 1.417441 -0.073853 -0.149240 -0.089308 0.251178 -0.485455 -0.093838 0.259942 0.695640 -0.135507 -1.612846 -0.580450 0.871235 0.020815 -0.012366 0.044177 0.344020 -0.499296 0.003896 29.012291 -5.101110 0.777076 -1.793221 -0.709667 -2.121847 -13.452945 -3.472371 -8.333357 -4.649087 -0.456039 2.619796 -22.542667 -1.080704 -7.537054 -25.925699 1.614274 -4.317716 -8.557364 -8.235585 19.596404 35.059672 -1.564652 -17.342808 
